<svg width="1440" height="5985" viewBox="0 0 1440 5985" fill="none" xmlns="http://www.w3.org/2000/svg">
<path d="M148.794 5985.03V5614.03L398.711 5469.53L555.294 5378.99V5985.03H148.794Z" fill="#2A302E" fill-opacity="0.22"/>
<path d="M254.294 5384.03L4.29395 5530.03V5184.53L254.294 5047.02V5131.28V5215.53V5384.03Z" fill="#2A302E" fill-opacity="0.22"/>
<path d="M1318.29 5041.52V5319.53L1246.54 5360.13L1174.79 5400.73L1026.29 5315.1V5211.03L1172.29 5126.27L1318.29 5041.52Z" fill="#2A302E" fill-opacity="0.22"/>
<path d="M1055.58 4511.52L710.829 4706.52V4860.52L1055.58 4665.52V4511.52Z" fill="#454B50"/>
<path d="M365.294 4412.01L-23.2059 4628.01V4470.5L365.294 4254.5V4412.01Z" fill="#454B50"/>
<path d="M907.876 4077.01L684.085 4202.5V4042.52V3816.02L907.876 3686.34V3788.01V3788.01V4077.01Z" fill="#454B50"/>
<path d="M528.085 3969.44L304.294 4091.01V3979.58L528.085 3858.01V3969.44Z" fill="#2A302E" fill-opacity="0.22"/>
<path d="M1110.29 3881.47V4170.47L1323.96 4046.64L1450.88 3973.09V3582.41L1110.29 3779.79V3881.46V3881.47Z" fill="#2A302E" fill-opacity="0.22"/>
<path d="M705.459 3592.88L481.668 3722.57L481.668 3231.6L651.959 3132.92L822.251 3034.23L1162.83 2836.85V3327.82L1046.04 3395.5L705.459 3592.88Z" fill="#2A302E" fill-opacity="0.22"/>
<path d="M428.058 2100.51L257.767 2199.2V2343.82L428.058 2245.13V2100.51Z" fill="#454B50"/>
<path d="M495.959 3059.82L325.668 3158.5V2552.48L666.251 2355.1V2423.23V2552.73V2658.12V2961.13L495.959 3059.82Z" fill="#454B50"/>
<path d="M1310.46 3029.29V2297.89L1651.04 2100.51V2831.92L1310.46 3029.29Z" fill="#454B50"/>
<path d="M1246.21 1913.6L905.625 2110.98V1918.8L1246.21 1721.42V1913.6Z" fill="#454B50"/>
<path d="M435.359 1597.76L261.417 1698.57V1228.94L602 1031.56V1464.92L435.359 1561.49V1597.76Z" fill="#454B50"/>
<path d="M711.794 980.452L602 1046.29V938.106L711.768 872.5L711.794 980.452Z" fill="#454B50"/>
<path d="M559.43 586.003V681.706L711.702 593.46L711.691 548.543L900.013 439.404V388.624L559.43 586.003Z" fill="#454B50"/>
<path d="M1116.52 1475.83L942.583 1572.46V1441.05V1379.26L1116.52 1278.45V1475.83Z" fill="#454B50"/>
<path d="M1457.11 984.624L1116.52 1182V780.503L1457.11 583.124V984.624Z" fill="#454B50"/>
<path d="M845.794 5211.03L555.294 5378.99M845.794 5211.03L1026.29 5315.1M845.794 5211.03V5106.02M148.794 5614.03V5985.03M148.794 5614.03L4.29395 5530.03M148.794 5614.03L398.711 5469.53M148.794 5985.03H4.29395V5530.03M148.794 5985.03H555.294M4.29395 5530.03L254.294 5384.03M4.29395 5530.03V5184.53L254.294 5047.02M254.294 5384.03L398.711 5469.53M254.294 5384.03V5215.53V5131.28V5047.02M398.711 5469.53L555.294 5378.99M398.711 5469.53V5129.03M555.294 5378.99L1439.79 5888.53M555.294 5378.99V5985.03M1439.79 5888.53V5985.03H555.294M1439.79 5888.53V5553.53M1439.79 5553.53V5384.03M1439.79 5553.53L1174.79 5400.73M1439.79 5384.03L1318.29 5319.53M1439.79 5384.03V4691.52L1055.58 4511.52M1318.29 5319.53V5041.52M1318.29 5319.53L1246.54 5360.13L1174.79 5400.73M1174.79 5400.73L1026.29 5315.1M1318.29 5041.52L1127.79 4933.02M1318.29 5041.52L1172.29 5126.27L1026.29 5211.03M1026.29 5211.03V5315.1M1026.29 5211.03L845.794 5106.02M845.794 5106.02L1127.79 4933.02M1127.79 4933.02V4706.52M398.711 5129.03L1127.79 4706.52M398.711 5129.03L254.294 5047.02M1127.79 4706.52L1055.58 4665.52M254.294 5047.02V4758.02M254.294 5047.02L4.29395 4897.52M254.294 5047.02L642.794 4821.89M254.294 4758.02L642.794 4542.02M254.294 4758.02L-23.2059 4628.01M1055.58 4665.52L710.829 4860.52M1055.58 4665.52V4511.52M1055.58 4665.52V4588.52V4511.52M1055.58 4511.52L684.085 4331.52L460.294 4456.52V4164.1M1055.58 4511.52V4511.52M642.794 4542.02V4821.89M642.794 4542.02L365.294 4412.01M642.794 4821.89L710.829 4860.52M-23.2059 4628.01L365.294 4412.01M-23.2059 4628.01V4470.5M365.294 4412.01V4254.5M1396.17 4314.15L1055.58 4511.52M1396.17 4314.15V4087.65L1055.58 4285.02M1396.17 4314.15L1780.38 4494.16M1055.58 4511.52V4285.02M1055.58 4511.52L710.829 4706.52M1055.58 4285.02L983.376 4244.02M983.376 4244.02L1323.96 4046.64M983.376 4244.02V4476.53M1323.96 4046.64L1396.17 4087.64M1323.96 4046.64L1450.88 3973.09M1323.96 4046.64L1110.29 4170.47M710.829 4706.52L642.794 4667.89M710.829 4706.52V4860.52M460.294 4164.1L684.085 4042.53M460.294 4164.1L304.294 4091.01V4225.92M684.085 4202.5L983.376 4340.51M684.085 4202.5L907.876 4077.01M684.085 4202.5V3816.02M684.085 4202.5V4042.52M684.085 4331.52V4042.52L528.085 3969.44M907.876 4077.01L1110.29 4170.47M907.876 4077.01V4077.01V3788.01M907.876 4077.01V3788.01M1110.29 4170.47V3881.46M1110.29 4170.47V3881.47M365.294 4254.5L-23.2059 4470.5M365.294 4254.5L304.294 4225.92M-23.2059 4470.5L-84.2058 4441.92L-179.206 4397.42M-179.206 4397.42V4554.93M-179.206 4397.42L-84.2058 4344.6M304.294 4225.92L209.294 4181.41L101.877 4241.14M684.085 4042.52V3816.02M684.085 4042.52V3816.02M684.085 3816.02L481.668 3722.57M684.085 3816.02V3816.02M684.085 3816.02L907.876 3686.34M907.876 3788.01V3788.01M907.876 3788.01V3686.34M907.876 3788.01V3686.34M907.876 3686.34L1110.29 3779.79M907.876 3686.34L705.459 3592.88M1110.29 3779.79V3881.47M1110.29 3779.79L1450.88 3582.41M1110.29 3779.79V3881.46M1110.29 3881.46V3881.47M1450.88 3582.41V3094.12L1365.25 3054.59L1310.46 3029.29M1450.88 3582.41V3973.09M1664.54 3849.26L1450.88 3973.09M481.668 3722.57V3836.57M481.668 3722.57L705.459 3592.88L1046.04 3395.5L1162.83 3327.82M481.668 3722.57V3230.54L481.668 3231.6M481.668 3722.57L481.668 3231.6M528.085 3858.01V3969.44L304.294 4091.01V3979.58M528.085 3858.01L481.668 3836.57M528.085 3858.01L304.294 3979.58M325.668 3764.55L481.668 3836.57M325.668 3764.55L101.877 3886.12M325.668 3764.55V3490.51M304.294 3979.58L257.877 3958.15L101.877 3886.12M101.877 3886.12V3997.56M101.877 3997.56V4132.47V4241.14M101.877 4241.14L-84.2058 4344.6M325.668 3764.55V3158.52L481.668 3231.6M481.668 3231.6L651.959 3132.92L822.251 3034.23L1162.83 2836.85V3327.82M1162.83 3327.82L1450.88 3460.81V2969.83M325.668 3490.51L-84.2058 3722.57V4344.6M325.668 3490.51L123.251 3397.06L-79.166 3303.6M325.668 3158.5L495.959 3059.82L666.251 2961.13M325.668 3158.5V2552.48M325.668 3158.5V3158.52V2552.48M666.251 2961.13L1006.83 2763.75M666.251 2961.13V2658.12M666.251 2961.13V2961.14V2658.12M1006.83 2763.75V2460.73L905.625 2414V2284.5M1006.83 2763.75L1084.83 2800.29L1162.83 2836.83M325.668 2552.48L666.251 2355.1M325.668 2552.48L123.251 2459.03L-79.166 2365.57M666.251 2355.1L552.427 2302.55L463.834 2261.65L428.058 2245.13M666.251 2355.1V2423.23M-79.166 2365.57L91.1255 2266.88M-79.166 2365.57V2022.73M666.251 2658.12L836.542 2559.43L1006.83 2460.74M666.251 2658.12V2423.23M666.251 2658.12V2552.73M1162.83 2961.14L1310.46 3029.29M905.625 2414V2110.98M905.625 2414L735.334 2512.69L666.251 2552.73M905.625 2414L666.251 2552.73M905.625 2110.98L1246.21 1913.6M905.625 2110.98V1918.8M905.625 2110.98L1006.83 2157.71L1108.04 2204.44L1310.46 2297.89M1310.46 2297.89V3029.29M1310.46 2297.89L1651.04 2100.51M1310.46 3029.29L1651.04 2831.92V2100.51M1651.04 2100.51L1448.63 2007.06L1375.15 1973.14M1246.21 1913.6V1721.42M1246.21 1913.6L1375.15 1973.14M804.417 2237.78L703.208 2191.05L602 2144.33M804.417 2237.78L905.625 2284.5M804.417 2237.78V1922.01M602 2144.33L428.058 2245.13M602 2144.33V1778.62M905.625 2284.5L735.334 2383.2L666.251 2423.23M905.625 2284.5L666.251 2423.23M666.251 2423.23V2552.73M428.058 2245.13V1775.5M428.058 2245.13L257.767 2343.82M428.058 2245.13V2100.51M804.417 1872.08L905.625 1918.8M804.417 1872.08L877.15 1829.92M804.417 1872.08V1922.01M905.625 1918.8L1246.21 1721.42M1246.21 1721.42L1172.74 1687.5M602 1778.62L775.942 1682L877.15 1728.73M602 1778.62V1674.7M602 1778.62L703.208 1825.35M602 1674.7L428.058 1775.5M602 1674.7L535.17 1643.84L435.359 1597.76M602 1674.7V1638.43M428.058 1775.5L261.417 1698.57M261.417 1698.57L435.359 1597.76M261.417 1698.57V2023.57M261.417 1698.57V1228.94M435.359 1597.76V1561.49M804.417 2024.95L753.813 2001.59L703.208 1978.23M602 1931.5L703.208 1978.23M703.208 1978.23V1825.35M703.208 1978.23L804.417 1922.01M942.583 1734.12L998.794 1759.43V1597.76M942.583 1734.12L877.15 1772.04M942.583 1734.12V1572.46M428.058 2100.51L257.767 2199.2M428.058 2100.51L344.738 2062.04L261.417 2023.57M257.767 2199.2V2343.82M257.767 2199.2L174.446 2160.73L132.786 2141.5L91.1255 2122.26M257.767 2343.82L174.446 2305.35L132.786 2286.12L91.1255 2266.88M261.417 2023.57L91.1255 2122.26M91.1255 2266.88V2122.26M942.583 1441.05L602 1638.43M942.583 1441.05L775.942 1364.11M942.583 1441.05V1379.26M942.583 1441.05V1572.46M602 1638.43L435.359 1561.49M435.359 1561.49L602 1464.92M775.942 1364.11V1302.32M775.942 1364.11L602 1464.92M703.208 1825.35L877.15 1728.73M877.15 1728.73V1772.04M877.15 1829.92L1145 1674.7L1172.74 1687.5M877.15 1829.92V1772.04M942.583 1572.46L998.794 1597.76M942.583 1572.46L1116.52 1475.83M998.794 1597.76L1172.74 1501.14M1172.74 1501.14L1116.52 1475.83M1172.74 1501.14V1207.31M1172.74 1501.14V1594.32M1116.52 1475.83V1278.45M1172.74 1687.5V1594.32M1172.74 1594.32L1375.15 1687.78M1172.74 1594.32L1513.32 1396.94M1375.15 1687.78V1973.14M1375.15 1687.78L1462.12 1639.46M59 1731.9L261.417 1825.35L-79.166 2022.73M59 1731.9V1135.48M59 1731.9L-27.9709 1691.74M-143.417 1638.44L-27.9709 1691.74M-79.166 2022.73L-281.583 1929.27L-484 1835.82M59 1135.48L261.417 1228.94M59 1135.48L399.583 938.106M261.417 1228.94L602 1031.56M602 1031.56V1464.92M602 1031.56L551.844 1008.4M399.583 938.106L551.844 1008.4M399.583 938.106V844.652V784.044M1116.52 1182L1457.11 984.624V583.124M1116.52 1182L1172.74 1207.31M1116.52 1182V780.503L1457.11 583.124M1116.52 1182V1278.45M1172.74 1207.31L1513.32 1009.93M1116.52 1278.45L942.583 1379.26M1116.52 1278.45L949.884 1201.52L854.294 1256.92M942.583 1379.26L775.942 1302.32M775.942 1302.32L854.294 1256.92M602 1192.5L854.294 1046.29M854.294 1046.29V1256.92M854.294 1046.29L711.794 980.452M551.844 1008.4V914.949M711.691 548.543L1116 781.454M711.691 548.543L711.702 593.46M711.691 548.543L900.013 439.404M711.794 980.452L602 1046.29V938.106M711.794 980.452L711.768 872.5M711.768 872.5L602 938.106M711.768 872.5L661.535 849.111M711.768 872.5L711.702 593.46M602 938.106L551.844 914.949M551.844 914.949L559.43 910.396L661.535 849.111M551.844 914.949V854.341M661.535 849.111V788.503M559.43 681.706L711.691 752.003M559.43 681.706V741.363M559.43 681.706V586.003M559.43 681.706L711.702 593.46M1457.11 583.124L1052.8 350.213M661.535 788.503L559.43 849.788L551.844 854.341M661.535 788.503L559.43 741.363M551.844 854.341L399.583 784.044M399.583 784.044L407.17 779.491L509.274 718.206M509.274 718.206L559.43 741.363M509.274 718.206V404.908M174.446 1068.58V598.952M174.446 598.952L509.274 404.908M174.446 598.952L-27.9709 505.498M509.274 404.908L306.857 311.454M509.274 404.908V229.318M559.43 586.003L509.274 562.846L776.5 407.98M559.43 586.003L900.013 388.624M900.013 388.624L849.857 365.467L776.5 407.98M900.013 388.624V439.404M-27.9709 505.498V1691.74M-27.9709 505.498L306.857 311.454M306.857 311.454V135.864M1052.27 351.164L900.013 439.404M509.274 229.318L776.5 97.4539M509.274 229.318L306.857 135.864M776.5 97.4539L574.083 3.99994L306.857 135.864M776.5 97.4539V407.98" stroke="#826760" stroke-width="6"/>
</svg>
